{
	"asset":{
		"generator":"Khronos glTF Blender I/O v4.0.43",
		"version":"2.0"
	},
	"scene":0,
	"scenes":[
		{
			"name":"Scene",
			"nodes":[
				4
			]
		}
	],
	"nodes":[
		{
			"name":"Empty",
			"translation":[
				0.861506998538971,
				-21.632909774780273,
				4.354709625244141
			]
		},
		{
			"mesh":0,
			"name":"Forearm1.STL",
			"scale":[
				0.10000000149011612,
				0.10000000149011612,
				0.10000000149011612
			],
			"translation":[
				-2.6356468200683594,
				-17.538497924804688,
				0.5252535343170166
			]
		},
		{
			"mesh":1,
			"name":"Forearm2.STL",
			"scale":[
				0.10000000149011612,
				0.10000000149011612,
				0.10000000149011612
			],
			"translation":[
				2.8846218585968018,
				-25.316911697387695,
				8.590500831604004
			]
		},
		{
			"mesh":2,
			"name":"Forearm3.STL",
			"scale":[
				0.10000000149011612,
				0.10000000149011612,
				0.10000000149011612
			],
			"translation":[
				3.0081675052642822,
				-23.85790252685547,
				0.5231344699859619
			]
		},
		{
			"children":[
				0,
				1,
				2,
				3
			],
			"name":"Mball",
			"translation":[
				-0.861506998538971,
				21.632909774780273,
				-4.229057312011719
			]
		}
	],
	"materials":[
		{
			"name":"Material_0",
			"pbrMetallicRoughness":{
				"metallicFactor":0
			}
		},
		{
			"name":"Material_1",
			"pbrMetallicRoughness":{
				"metallicFactor":0
			}
		},
		{
			"emissiveFactor":[
				0.01850022003054619,
				0.06301001459360123,
				0.11443537473678589
			],
			"name":"Material_2",
			"pbrMetallicRoughness":{
				"metallicFactor":0.4399999976158142
			}
		}
	],
	"meshes":[
		{
			"name":"Mesh_0",
			"primitives":[
				{
					"attributes":{
						"POSITION":0,
						"NORMAL":1
					},
					"indices":2,
					"material":0
				}
			]
		},
		{
			"name":"Mesh_1",
			"primitives":[
				{
					"attributes":{
						"POSITION":3,
						"NORMAL":4
					},
					"indices":5,
					"material":1
				}
			]
		},
		{
			"name":"Mesh_2",
			"primitives":[
				{
					"attributes":{
						"POSITION":6,
						"NORMAL":7
					},
					"indices":8,
					"material":2
				}
			]
		}
	],
	"accessors":[
		{
			"bufferView":0,
			"componentType":5126,
			"count":101076,
			"max":[
				71.9936752319336,
				239.99700927734375,
				115
			],
			"min":[
				0,
				0,
				6.938893903907228e-15
			],
			"type":"VEC3"
		},
		{
			"bufferView":1,
			"componentType":5126,
			"count":101076,
			"type":"VEC3"
		},
		{
			"bufferView":2,
			"componentType":5125,
			"count":101076,
			"type":"SCALAR"
		},
		{
			"bufferView":3,
			"componentType":5126,
			"count":45738,
			"max":[
				59.9970703125,
				173.88583374023438,
				12.5
			],
			"min":[
				-59.9970703125,
				-173.88583374023438,
				-12.5
			],
			"type":"VEC3"
		},
		{
			"bufferView":4,
			"componentType":5126,
			"count":45738,
			"type":"VEC3"
		},
		{
			"bufferView":5,
			"componentType":5123,
			"count":45738,
			"type":"SCALAR"
		},
		{
			"bufferView":6,
			"componentType":5126,
			"count":38208,
			"max":[
				59.99445343017578,
				188.25828552246094,
				12.5
			],
			"min":[
				-59.99445343017578,
				-188.25828552246094,
				-12.5
			],
			"type":"VEC3"
		},
		{
			"bufferView":7,
			"componentType":5126,
			"count":38208,
			"type":"VEC3"
		},
		{
			"bufferView":8,
			"componentType":5123,
			"count":38208,
			"type":"SCALAR"
		}
	],
	"bufferViews":[
		{
			"buffer":0,
			"byteLength":1212912,
			"byteOffset":0,
			"target":34962
		},
		{
			"buffer":0,
			"byteLength":1212912,
			"byteOffset":1212912,
			"target":34962
		},
		{
			"buffer":0,
			"byteLength":404304,
			"byteOffset":2425824,
			"target":34963
		},
		{
			"buffer":0,
			"byteLength":548856,
			"byteOffset":2830128,
			"target":34962
		},
		{
			"buffer":0,
			"byteLength":548856,
			"byteOffset":3378984,
			"target":34962
		},
		{
			"buffer":0,
			"byteLength":91476,
			"byteOffset":3927840,
			"target":34963
		},
		{
			"buffer":0,
			"byteLength":458496,
			"byteOffset":4019316,
			"target":34962
		},
		{
			"buffer":0,
			"byteLength":458496,
			"byteOffset":4477812,
			"target":34962
		},
		{
			"buffer":0,
			"byteLength":76416,
			"byteOffset":4936308,
			"target":34963
		}
	],
	"buffers":[
		{
			"byteLength":5012724,
			"uri":"scene1.bin"
		}
	]
}
